<?xml version="1.0" encoding="iso-8859-1"?>
<!-- Uploaded to: SVG Repo, www.svgrepo.com, Generator: SVG Repo Mixer Tools -->
<svg height="800px" width="800px" version="1.1" id="Layer_1" xmlns="http://www.w3.org/2000/svg" xmlns:xlink="http://www.w3.org/1999/xlink" 
	 viewBox="0 0 491.52 491.52" xml:space="preserve">
<path style="fill:#FCD462;" d="M245.764,491.52c-60.674,0-108.203-107.949-108.203-245.76S185.09,0,245.764,0
	c60.665,0,108.193,107.949,108.193,245.76S306.429,491.52,245.764,491.52z M245.764,17.246c-49.306,0-90.956,104.649-90.956,228.514
	s41.651,228.514,90.956,228.514c49.296,0,90.947-104.649,90.947-228.514S295.061,17.246,245.764,17.246z"/>
<path style="fill:#EBF0F3;" d="M109.309,400.951c-36.353,0-63.823-10.552-76.387-32.311C2.59,316.092,72.316,220.96,191.659,152.05
	l0,0c55.823-32.228,113.726-53.423,163.032-59.663c51.797-6.577,88.765,4.245,103.907,30.493
	c30.332,52.547-39.395,147.68-158.737,216.58C229.941,379.831,160.737,400.951,109.309,400.951z M200.282,166.99
	C93.014,228.918,23.212,317.321,47.86,360.017c24.657,42.711,136.118,26.442,243.377-35.495
	c107.267-61.928,177.07-150.324,152.42-193.019c-11.283-19.546-42.93-27.562-86.803-22.013
	C309.772,115.46,254.169,135.874,200.282,166.99L200.282,166.99z"/>
<path style="fill:#44C4A1;" d="M382.707,401.01c-8.766,0-18.114-0.623-28.017-1.878c-49.306-6.248-107.209-27.435-163.032-59.672
	C72.316,270.551,2.59,175.419,32.922,122.88c30.341-52.539,147.604-39.714,266.939,29.17
	c119.342,68.901,189.069,164.042,158.737,216.59C446.344,389.869,419.844,401.01,382.707,401.01z M108.173,107.637
	c-29.246,0-50.99,7.715-60.313,23.866c-24.648,42.695,45.154,131.091,152.422,193.019l0,0
	c53.887,31.116,109.491,51.537,156.573,57.508c43.915,5.566,75.52-2.46,86.803-22.013c24.65-42.703-45.145-131.099-152.42-193.027
	C224.543,128.489,156.232,107.637,108.173,107.637z"/>
<circle style="fill:#64798A;" cx="245.76" cy="245.76" r="36.941"/>
</svg>