<?xml version="1.0" encoding="iso-8859-1"?>
<!-- Uploaded to: SVG Repo, www.svgrepo.com, Generator: SVG Repo Mixer Tools -->
<svg version="1.1" id="Layer_1" xmlns="http://www.w3.org/2000/svg" xmlns:xlink="http://www.w3.org/1999/xlink" 
	 viewBox="0 0 491.53 491.53" xml:space="preserve">
<rect x="0.005" y="440.279" style="fill:#D5D6DB;" width="491.52" height="51.251"/>
<rect x="0.005" y="440.279" style="fill:#EBF0F3;" width="491.52" height="33.213"/>
<rect x="31.032" y="421.581" style="fill:#64798A;" width="103.219" height="18.703"/>
<path style="fill:#EBF0F3;" d="M134.258,417.175c0-1.997-1.604-3.614-3.583-3.614H34.636c-1.978,0-3.582,1.617-3.582,3.614v4.403
	h103.204C134.258,421.577,134.258,417.175,134.258,417.175z"/>
<path style="fill:#FCD462;" d="M476.579,0H14.95C6.697,0,0.005,6.692,0.005,14.946v339.61c0,8.254,6.692,14.946,14.944,14.946
	h461.629c8.254,0,14.946-6.692,14.946-14.946V14.946C491.525,6.692,484.833,0,476.579,0z"/>
<rect x="26.813" y="26.808" style="fill:#F6C358;" width="437.914" height="315.884"/>
<rect x="35.748" y="35.748" style="fill:#64798A;" width="420.045" height="298.035"/>
<g>
	<path style="fill:#FFFFFF;" d="M126.05,145.641v-19.533h62.871v15.866l-21.006,23.939c8.23,1.37,14.592,4.827,19.096,10.36
		c4.503,5.533,6.763,11.922,6.763,19.165c0,10.778-3.648,19.226-10.944,25.345c-7.296,6.117-16.626,9.181-27.989,9.181
		c-11.354,0-22.864-4.014-34.516-12.052l9.4-18.214c9.697,6.86,18.362,10.29,25.999,10.29c4.607,0,8.395-1.126,11.389-3.386
		c2.985-2.253,4.477-5.507,4.477-9.766c0-4.259-1.71-7.637-5.14-10.133c-3.43-2.496-8.178-3.743-14.253-3.743
		c-3.229,0-7.784,0.925-13.658,2.784v-16.888l19.681-23.214H126.05z"/>
	<path style="fill:#FFFFFF;" d="M234.599,212.771v-26.435h-25.701v-18.074h25.701v-26.435h20.274v26.435h25.71v18.074h-25.71v26.435
		H234.599z"/>
	<path style="fill:#FFFFFF;" d="M339.266,166.132c2.592-3.665,3.892-7.218,3.892-10.648s-1.126-6.292-3.377-8.596
		c-2.253-2.295-5.141-3.447-8.666-3.447c-6.459,0-12.584,4.599-18.362,13.806l-18.363-10.874c4.8-7.436,10.063-13.074,15.797-16.887
		c5.725-3.823,13.021-5.734,21.888-5.734c8.858,0,16.643,2.819,23.354,8.448c6.702,5.637,10.062,13.291,10.062,22.987
		c0,5.288-1.352,10.36-4.04,15.203c-2.697,4.852-7.662,11.048-14.916,18.589l-18.501,19.244h40.539v20.562h-72.42v-17.037
		l30.119-30.85C332.337,174.729,336.674,169.807,339.266,166.132z"/>
</g>
</svg>