<?xml version="1.0" encoding="iso-8859-1"?>
<!-- Uploaded to: SVG Repo, www.svgrepo.com, Generator: SVG Repo Mixer Tools -->
<svg version="1.1" id="Layer_1" xmlns="http://www.w3.org/2000/svg" xmlns:xlink="http://www.w3.org/1999/xlink" 
	 viewBox="0 0 491.52 491.52" xml:space="preserve">
<g>
	<rect y="109.077" style="fill:#EBF0F3;" width="491.52" height="17.874"/>
	<rect y="194.238" style="fill:#EBF0F3;" width="491.52" height="17.874"/>
	<rect y="279.399" style="fill:#EBF0F3;" width="491.52" height="17.874"/>
	<rect y="364.545" style="fill:#EBF0F3;" width="491.52" height="17.874"/>
</g>
<path style="fill:#E56353;" d="M95.175,238.08l-19.553,59.202H50.501l63.931-188.203h29.328l64.228,188.203h-25.965l-20.12-59.202
	H95.175z M156.879,219.095l-18.415-54.156c-4.206-12.3-6.98-23.463-9.777-34.353h-0.568c-2.796,11.164-5.865,22.621-9.48,34.058
	L100.2,219.095H156.879z"/>
<path style="fill:#44C4A1;" d="M287.442,379.574c0.531-8.608,1.063-21.403,1.063-32.625V194.24h22.699v79.362h0.531
	c8.077-14.091,22.699-23.23,43.061-23.23c31.328,0,53.517,26.1,53.242,64.464c0,45.165-28.438,67.608-56.642,67.608
	c-18.257,0-32.88-7.056-42.275-23.762h-0.786l-1.041,20.893H287.442z M311.204,328.926c0,2.89,0.531,5.76,1.041,8.352
	c4.442,15.941,17.747,26.886,34.452,26.886c24.017,0,38.384-19.575,38.384-48.543c0-25.314-13.049-46.993-37.597-46.993
	c-15.664,0-30.287,10.713-34.984,28.204c-0.51,2.614-1.296,5.738-1.296,9.395V328.926z"/>
</svg>